<mxfile host="app.diagrams.net" modified="2022-03-30T12:07:50.777Z" agent="5.0 (Macintosh; Intel Mac OS X 10_15_7) AppleWebKit/537.36 (KHTML, like Gecko) Chrome/99.0.4844.83 Safari/537.36" etag="gzmTd-XFvtmoE5dnssoZ" version="17.1.3" type="github">
  <diagram name="Page-1" id="bfe91b75-5d2c-26a0-9c1d-138518896778">
    <mxGraphModel dx="6527" dy="3370" grid="1" gridSize="10" guides="1" tooltips="1" connect="1" arrows="1" fold="1" page="1" pageScale="1" pageWidth="1100" pageHeight="850" background="none" math="0" shadow="0">
      <root>
        <mxCell id="0" />
        <mxCell id="1" parent="0" />
        <mxCell id="7c3789c024ecab99-82" value="A楼1层&lt;br&gt;name=/sites/19/buildings/189/floors/190" style="rounded=1;whiteSpace=wrap;html=1;shadow=0;comic=0;strokeColor=#036897;strokeWidth=2;fillColor=none;fontFamily=Verdana;fontSize=28;fontColor=#6881B3;align=center;arcSize=11;verticalAlign=top;" parent="1" vertex="1">
          <mxGeometry x="78" y="1355" width="1065" height="420" as="geometry" />
        </mxCell>
        <mxCell id="7c3789c024ecab99-81" value="A楼2层" style="rounded=1;whiteSpace=wrap;html=1;shadow=0;comic=0;strokeColor=#036897;strokeWidth=2;fillColor=none;fontFamily=Verdana;fontSize=28;fontColor=#6881B3;align=center;arcSize=11;verticalAlign=top;" parent="1" vertex="1">
          <mxGeometry x="75" y="900" width="1065" height="420" as="geometry" />
        </mxCell>
        <mxCell id="7c3789c024ecab99-79" value="A楼3层" style="rounded=1;whiteSpace=wrap;html=1;shadow=0;comic=0;strokeColor=#036897;strokeWidth=2;fillColor=none;fontFamily=Verdana;fontSize=28;fontColor=#6881B3;align=center;arcSize=11;verticalAlign=top;" parent="1" vertex="1">
          <mxGeometry x="78" y="462" width="1065" height="420" as="geometry" />
        </mxCell>
        <mxCell id="7c3789c024ecab99-78" value="A楼4层" style="rounded=1;whiteSpace=wrap;html=1;shadow=0;comic=0;strokeColor=#036897;strokeWidth=2;fillColor=none;fontFamily=Verdana;fontSize=28;fontColor=#6881B3;align=center;arcSize=11;verticalAlign=top;" parent="1" vertex="1">
          <mxGeometry x="75" y="-10" width="1065" height="420" as="geometry" />
        </mxCell>
        <mxCell id="iDhdd3Mb0PDvgbOndrzR-1" value="C楼1层&lt;br&gt;name=/sites/19/buildings/192/floors/193" style="rounded=1;whiteSpace=wrap;html=1;shadow=0;comic=0;strokeColor=#036897;strokeWidth=2;fillColor=none;fontFamily=Verdana;fontSize=28;fontColor=#6881B3;align=center;arcSize=11;verticalAlign=top;" vertex="1" parent="1">
          <mxGeometry x="1560" y="1355" width="1065" height="420" as="geometry" />
        </mxCell>
        <mxCell id="iDhdd3Mb0PDvgbOndrzR-2" value="C楼2层" style="rounded=1;whiteSpace=wrap;html=1;shadow=0;comic=0;strokeColor=#036897;strokeWidth=2;fillColor=none;fontFamily=Verdana;fontSize=28;fontColor=#6881B3;align=center;arcSize=11;verticalAlign=top;" vertex="1" parent="1">
          <mxGeometry x="1550" y="900" width="1065" height="420" as="geometry" />
        </mxCell>
        <mxCell id="iDhdd3Mb0PDvgbOndrzR-3" value="C楼3层" style="rounded=1;whiteSpace=wrap;html=1;shadow=0;comic=0;strokeColor=#036897;strokeWidth=2;fillColor=none;fontFamily=Verdana;fontSize=28;fontColor=#6881B3;align=center;arcSize=11;verticalAlign=top;" vertex="1" parent="1">
          <mxGeometry x="1540" y="425" width="1065" height="420" as="geometry" />
        </mxCell>
        <mxCell id="iDhdd3Mb0PDvgbOndrzR-7" style="edgeStyle=orthogonalEdgeStyle;rounded=0;orthogonalLoop=1;jettySize=auto;html=1;entryX=0.5;entryY=1;entryDx=0;entryDy=0;entryPerimeter=0;strokeWidth=6;strokeColor=#66FF66;" edge="1" parent="1" source="iDhdd3Mb0PDvgbOndrzR-5" target="iDhdd3Mb0PDvgbOndrzR-6">
          <mxGeometry relative="1" as="geometry">
            <Array as="points">
              <mxPoint x="585" y="2120" />
              <mxPoint x="2155" y="2120" />
            </Array>
          </mxGeometry>
        </mxCell>
        <mxCell id="iDhdd3Mb0PDvgbOndrzR-5" value="" style="verticalLabelPosition=bottom;sketch=0;html=1;fillColor=#6ABD46;strokeColor=#ffffff;verticalAlign=top;align=center;points=[[0.085,0.085,0],[0.915,0.085,0],[0.915,0.915,0],[0.085,0.915,0],[0.25,0,0],[0.5,0,0],[0.75,0,0],[1,0.25,0],[1,0.5,0],[1,0.75,0],[0.75,1,0],[0.5,1,0],[0.25,1,0],[0,0.75,0],[0,0.5,0],[0,0.25,0]];pointerEvents=1;shape=mxgraph.cisco_safe.compositeIcon;bgIcon=mxgraph.cisco_safe.architecture.generic_appliance;resIcon=mxgraph.cisco_safe.architecture.endpoint_concentrator;" vertex="1" parent="1">
          <mxGeometry x="490" y="1700" width="190" height="190" as="geometry" />
        </mxCell>
        <mxCell id="iDhdd3Mb0PDvgbOndrzR-6" value="" style="verticalLabelPosition=bottom;sketch=0;html=1;fillColor=#6ABD46;strokeColor=#ffffff;verticalAlign=top;align=center;points=[[0.085,0.085,0],[0.915,0.085,0],[0.915,0.915,0],[0.085,0.915,0],[0.25,0,0],[0.5,0,0],[0.75,0,0],[1,0.25,0],[1,0.5,0],[1,0.75,0],[0.75,1,0],[0.5,1,0],[0.25,1,0],[0,0.75,0],[0,0.5,0],[0,0.25,0]];pointerEvents=1;shape=mxgraph.cisco_safe.compositeIcon;bgIcon=mxgraph.cisco_safe.architecture.generic_appliance;resIcon=mxgraph.cisco_safe.architecture.endpoint_concentrator;" vertex="1" parent="1">
          <mxGeometry x="2060" y="1690" width="190" height="190" as="geometry" />
        </mxCell>
        <mxCell id="iDhdd3Mb0PDvgbOndrzR-12" value="连接C楼" style="swimlane;childLayout=stackLayout;horizontal=1;startSize=30;horizontalStack=0;rounded=1;fontSize=34;fontStyle=0;strokeWidth=2;resizeParent=0;resizeLast=1;shadow=0;dashed=0;align=center;" vertex="1" parent="1">
          <mxGeometry x="90" y="1830" width="370" height="470" as="geometry" />
        </mxCell>
        <mxCell id="iDhdd3Mb0PDvgbOndrzR-13" value="+areaId:/sites/19/buildings/189/floors/190&#xa;+tags: C楼1层&#xa;+mapId: ref&gt;C楼1层::uuid" style="align=left;strokeColor=none;fillColor=none;spacingLeft=4;fontSize=32;verticalAlign=top;resizable=0;rotatable=0;part=1;" vertex="1" parent="iDhdd3Mb0PDvgbOndrzR-12">
          <mxGeometry y="30" width="370" height="440" as="geometry" />
        </mxCell>
        <mxCell id="iDhdd3Mb0PDvgbOndrzR-16" value="连接A楼" style="swimlane;childLayout=stackLayout;horizontal=1;startSize=30;horizontalStack=0;rounded=1;fontSize=34;fontStyle=0;strokeWidth=2;resizeParent=0;resizeLast=1;shadow=0;dashed=0;align=center;" vertex="1" parent="1">
          <mxGeometry x="2260" y="1810" width="380" height="500" as="geometry" />
        </mxCell>
        <mxCell id="iDhdd3Mb0PDvgbOndrzR-17" value="+areaId:/sites/19/buildings/192/floors/193&#xa;+tags: A楼1层&#xa;+mapId: ref&gt;A楼1层::uuid" style="align=left;strokeColor=none;fillColor=none;spacingLeft=4;fontSize=32;verticalAlign=top;resizable=0;rotatable=0;part=1;" vertex="1" parent="iDhdd3Mb0PDvgbOndrzR-16">
          <mxGeometry y="30" width="380" height="470" as="geometry" />
        </mxCell>
        <mxCell id="iDhdd3Mb0PDvgbOndrzR-19" value="" style="edgeStyle=elbowEdgeStyle;elbow=horizontal;endArrow=classic;html=1;rounded=0;fontSize=32;strokeColor=#FF3333;strokeWidth=6;fontColor=#FF3333;entryX=0.706;entryY=0.131;entryDx=0;entryDy=0;entryPerimeter=0;" edge="1" parent="1" target="7c3789c024ecab99-82">
          <mxGeometry width="50" height="50" relative="1" as="geometry">
            <mxPoint x="700" y="1890" as="sourcePoint" />
            <mxPoint x="1580" y="1660" as="targetPoint" />
            <Array as="points">
              <mxPoint x="1200" y="1730" />
            </Array>
          </mxGeometry>
        </mxCell>
        <mxCell id="iDhdd3Mb0PDvgbOndrzR-20" value="" style="edgeStyle=elbowEdgeStyle;elbow=horizontal;endArrow=classic;html=1;rounded=0;fontSize=32;fontColor=#FF3333;strokeColor=#66FF66;strokeWidth=3;entryX=0.5;entryY=0;entryDx=0;entryDy=0;" edge="1" parent="1" target="iDhdd3Mb0PDvgbOndrzR-1">
          <mxGeometry width="50" height="50" relative="1" as="geometry">
            <mxPoint x="470" y="1930" as="sourcePoint" />
            <mxPoint x="1580" y="1660" as="targetPoint" />
            <Array as="points">
              <mxPoint x="1490" y="1630" />
            </Array>
          </mxGeometry>
        </mxCell>
        <mxCell id="iDhdd3Mb0PDvgbOndrzR-21" value="B楼2层" style="rounded=1;whiteSpace=wrap;html=1;shadow=0;comic=0;strokeColor=#036897;strokeWidth=2;fillColor=none;fontFamily=Verdana;fontSize=28;fontColor=#6881B3;align=center;arcSize=11;verticalAlign=top;" vertex="1" parent="1">
          <mxGeometry x="-1130" y="882" width="1065" height="420" as="geometry" />
        </mxCell>
        <mxCell id="iDhdd3Mb0PDvgbOndrzR-22" value="B楼1层" style="rounded=1;whiteSpace=wrap;html=1;shadow=0;comic=0;strokeColor=#036897;strokeWidth=2;fillColor=none;fontFamily=Verdana;fontSize=28;fontColor=#6881B3;align=center;arcSize=11;verticalAlign=top;" vertex="1" parent="1">
          <mxGeometry x="-1130" y="1370" width="1065" height="420" as="geometry" />
        </mxCell>
        <mxCell id="iDhdd3Mb0PDvgbOndrzR-23" value="" style="verticalLabelPosition=bottom;sketch=0;html=1;fillColor=#6ABD46;strokeColor=#ffffff;verticalAlign=top;align=center;points=[[0.085,0.085,0],[0.915,0.085,0],[0.915,0.915,0],[0.085,0.915,0],[0.25,0,0],[0.5,0,0],[0.75,0,0],[1,0.25,0],[1,0.5,0],[1,0.75,0],[0.75,1,0],[0.5,1,0],[0.25,1,0],[0,0.75,0],[0,0.5,0],[0,0.25,0]];pointerEvents=1;shape=mxgraph.cisco_safe.compositeIcon;bgIcon=mxgraph.cisco_safe.architecture.generic_appliance;resIcon=mxgraph.cisco_safe.architecture.endpoint_concentrator;" vertex="1" parent="1">
          <mxGeometry x="-740" y="1700" width="190" height="190" as="geometry" />
        </mxCell>
        <mxCell id="iDhdd3Mb0PDvgbOndrzR-24" style="edgeStyle=orthogonalEdgeStyle;rounded=0;orthogonalLoop=1;jettySize=auto;html=1;entryX=0.75;entryY=1;entryDx=0;entryDy=0;entryPerimeter=0;strokeWidth=6;strokeColor=#66FF66;" edge="1" parent="1" target="iDhdd3Mb0PDvgbOndrzR-23">
          <mxGeometry relative="1" as="geometry">
            <mxPoint x="595" y="1900" as="sourcePoint" />
            <mxPoint x="2165" y="1890" as="targetPoint" />
            <Array as="points">
              <mxPoint x="595" y="2400" />
              <mxPoint x="-597" y="2400" />
            </Array>
          </mxGeometry>
        </mxCell>
      </root>
    </mxGraphModel>
  </diagram>
</mxfile>
